<svg width="120" height="24" viewBox="0 0 120 24" fill="none" xmlns="http://www.w3.org/2000/svg">
<path d="M111.342 22.2852C109.744 22.2852 108.306 21.9357 107.028 21.2367C105.75 20.5177 104.741 19.5091 104.002 18.2109C103.283 16.9127 102.924 15.4148 102.924 13.7172C102.924 12.0195 103.293 10.5216 104.032 9.22343C104.791 7.92524 105.82 6.92663 107.118 6.22761C108.416 5.50861 109.864 5.14911 111.462 5.14911C113.06 5.14911 114.508 5.50861 115.806 6.22761C117.104 6.92663 118.123 7.92524 118.862 9.22343C119.62 10.5216 120 12.0195 120 13.7172C120 15.4148 119.61 16.9127 118.832 18.2109C118.073 19.5091 117.034 20.5177 115.716 21.2367C114.418 21.9357 112.96 22.2852 111.342 22.2852ZM111.342 18.6303C112.101 18.6303 112.81 18.4506 113.469 18.0911C114.148 17.7116 114.687 17.1524 115.087 16.4134C115.486 15.6745 115.686 14.7757 115.686 13.7172C115.686 12.1394 115.267 10.9311 114.428 10.0922C113.609 9.23342 112.6 8.80402 111.402 8.80402C110.204 8.80402 109.195 9.23342 108.376 10.0922C107.577 10.9311 107.178 12.1394 107.178 13.7172C107.178 15.295 107.567 16.5133 108.346 17.3721C109.145 18.2109 110.144 18.6303 111.342 18.6303Z" fill="white"/>
<path fill-rule="evenodd" clip-rule="evenodd" d="M94.8122 12.2146C96.1503 12.6181 97.308 13.4379 98.1346 14.5235L101.603 5.14911H97.1396L94.8122 12.2146ZM91.0738 12.1994C89.7173 12.5963 88.5432 13.42 87.7065 14.5153L84.2576 5.14911H88.7513L91.0738 12.1994Z" fill="white"/>
<circle cx="92.9173" cy="18.4899" r="4.68098" fill="white"/>
<path d="M82.9769 13.3577C82.9769 13.9568 82.9369 14.4961 82.857 14.9754H70.7239C70.8238 16.1738 71.2432 17.1124 71.9822 17.7915C72.7211 18.4706 73.6299 18.8101 74.7084 18.8101C76.2662 18.8101 77.3747 18.141 78.0337 16.8029H82.5574C82.0781 18.4007 81.1594 19.7188 79.8013 20.7574C78.4432 21.776 76.7755 22.2852 74.7983 22.2852C73.2005 22.2852 71.7625 21.9357 70.4843 21.2367C69.226 20.5177 68.2374 19.5091 67.5184 18.2109C66.8194 16.9127 66.4698 15.4148 66.4698 13.7172C66.4698 11.9996 66.8194 10.4917 67.5184 9.19348C68.2174 7.89528 69.196 6.89668 70.4543 6.19765C71.7125 5.49862 73.1605 5.14911 74.7983 5.14911C76.3761 5.14911 77.7841 5.48864 79.0224 6.16769C80.2806 6.84674 81.2493 7.81539 81.9283 9.07364C82.6273 10.3119 82.9769 11.7399 82.9769 13.3577ZM78.6329 12.1593C78.6129 11.0808 78.2235 10.222 77.4645 9.58293C76.7056 8.92385 75.7769 8.59431 74.6784 8.59431C73.6399 8.59431 72.7611 8.91387 72.0421 9.55298C71.3431 10.1721 70.9137 11.0409 70.7539 12.1593H78.6329Z" fill="white"/>
<path fill-rule="evenodd" clip-rule="evenodd" d="M63.3898 22.2141V5.61719H59.1957V22.2141H63.3898Z" fill="white"/>
<path d="M48.7509 5.33257C50.0092 5.33257 51.1276 5.61218 52.1062 6.1714C53.0849 6.71065 53.8438 7.51953 54.3831 8.59803C54.9423 9.65655 55.2219 10.9348 55.2219 12.4327V22.1691H51.0277V13.0019C51.0277 11.6837 50.6982 10.6751 50.0391 9.97611C49.38 9.25711 48.4813 8.89761 47.3429 8.89761C46.1845 8.89761 45.2658 9.25711 44.5867 9.97611C43.9276 10.6751 43.5981 11.6837 43.5981 13.0019V22.1691H39.4039V0H43.5981V7.63936C44.1373 6.92036 44.8563 6.36114 45.7551 5.9617C46.6538 5.54228 47.6524 5.33257 48.7509 5.33257Z" fill="white"/>
<path d="M20.3038 13.7172C20.3038 11.9996 20.6533 10.5017 21.3524 9.22343C22.0514 7.92524 23.0201 6.92663 24.2583 6.22761C25.4966 5.50861 26.9146 5.14911 28.5124 5.14911C30.5695 5.14911 32.2672 5.66839 33.6053 6.70694C34.9634 7.72552 35.8722 9.16352 36.3315 11.0209H31.8078C31.5681 10.3019 31.1587 9.74271 30.5795 9.34327C30.0203 8.92385 29.3213 8.71414 28.4824 8.71414C27.2841 8.71414 26.3354 9.15353 25.6364 10.0323C24.9374 10.8911 24.5879 12.1194 24.5879 13.7172C24.5879 15.295 24.9374 16.5233 25.6364 17.402C26.3354 18.2608 27.2841 18.6903 28.4824 18.6903C30.1801 18.6903 31.2885 17.9313 31.8078 16.4134H36.3315C35.8722 18.2109 34.9634 19.6389 33.6053 20.6975C32.2472 21.756 30.5496 22.2852 28.5124 22.2852C26.9146 22.2852 25.4966 21.9357 24.2583 21.2367C23.0201 20.5177 22.0514 19.5191 21.3524 18.2409C20.6533 16.9427 20.3038 15.4348 20.3038 13.7172Z" fill="white"/>
<path d="M0 13.6573C0 11.9796 0.329541 10.4917 0.988623 9.19348C1.66768 7.89528 2.57641 6.89668 3.71483 6.19765C4.87321 5.49862 6.16142 5.14911 7.57945 5.14911C8.81772 5.14911 9.89622 5.39876 10.8149 5.89807C11.7536 6.39737 12.5026 7.02649 13.0618 7.78544V5.41873H17.2859V22.0156H13.0618V19.589C12.5226 20.3679 11.7736 21.017 10.8149 21.5363C9.87625 22.0356 8.78776 22.2852 7.54949 22.2852C6.15143 22.2852 4.87321 21.9257 3.71483 21.2067C2.57641 20.4878 1.66768 19.4792 0.988623 18.181C0.329541 16.8628 0 15.3549 0 13.6573ZM13.0618 13.7172C13.0618 12.6986 12.8621 11.8298 12.4626 11.1108C12.0632 10.3718 11.524 9.81261 10.8449 9.43314C10.1658 9.0337 9.43686 8.83398 8.65794 8.83398C7.87903 8.83398 7.16003 9.02371 6.50095 9.40319C5.84187 9.78266 5.30262 10.3419 4.8832 11.0808C4.48376 11.7998 4.28403 12.6587 4.28403 13.6573C4.28403 14.6559 4.48376 15.5346 4.8832 16.2936C5.30262 17.0326 5.84187 17.6018 6.50095 18.0012C7.18 18.4007 7.899 18.6004 8.65794 18.6004C9.43686 18.6004 10.1658 18.4106 10.8449 18.0312C11.524 17.6317 12.0632 17.0725 12.4626 16.3535C12.8621 15.6145 13.0618 14.7358 13.0618 13.7172Z" fill="white"/>
</svg>
