<svg width="120" height="24" viewBox="0 0 120 24" fill="none" xmlns="http://www.w3.org/2000/svg">
<path d="M111.342 22.2852C109.744 22.2852 108.306 21.9357 107.028 21.2367C105.75 20.5177 104.741 19.5091 104.002 18.2109C103.283 16.9127 102.924 15.4148 102.924 13.7172C102.924 12.0195 103.293 10.5216 104.032 9.22341C104.791 7.92522 105.82 6.92661 107.118 6.22758C108.416 5.50858 109.864 5.14908 111.462 5.14908C113.06 5.14908 114.508 5.50858 115.806 6.22758C117.104 6.92661 118.123 7.92522 118.862 9.22341C119.621 10.5216 120 12.0195 120 13.7172C120 15.4148 119.611 16.9127 118.832 18.2109C118.073 19.5091 117.034 20.5177 115.716 21.2367C114.418 21.9357 112.96 22.2852 111.342 22.2852ZM111.342 18.6303C112.101 18.6303 112.81 18.4506 113.469 18.0911C114.148 17.7116 114.687 17.1524 115.087 16.4134C115.486 15.6744 115.686 14.7757 115.686 13.7172C115.686 12.1393 115.267 10.931 114.428 10.0922C113.609 9.2334 112.6 8.80399 111.402 8.80399C110.204 8.80399 109.195 9.2334 108.376 10.0922C107.577 10.931 107.178 12.1393 107.178 13.7172C107.178 15.295 107.567 16.5133 108.346 17.3721C109.145 18.2109 110.144 18.6303 111.342 18.6303Z" fill="#0174BE"/>
<path fill-rule="evenodd" clip-rule="evenodd" d="M94.8122 12.2146C96.1503 12.6181 97.308 13.4379 98.1346 14.5234L101.603 5.14908H97.1396L94.8122 12.2146ZM91.0738 12.1994C89.7173 12.5963 88.5432 13.42 87.7065 14.5153L84.2576 5.14908H88.7513L91.0738 12.1994Z" fill="#0174BE"/>
<circle cx="92.9173" cy="18.4899" r="4.68098" fill="#0174BE"/>
<path d="M82.977 13.3577C82.977 13.9568 82.937 14.4961 82.8571 14.9754H70.724C70.8239 16.1737 71.2433 17.1124 71.9823 17.7915C72.7213 18.4705 73.63 18.8101 74.7085 18.8101C76.2663 18.8101 77.3748 18.141 78.0339 16.8029H82.5576C82.0782 18.4006 81.1595 19.7188 79.8014 20.7573C78.4433 21.7759 76.7756 22.2852 74.7984 22.2852C73.2006 22.2852 71.7626 21.9357 70.4844 21.2367C69.2261 20.5177 68.2375 19.5091 67.5185 18.2109C66.8195 16.9127 66.47 15.4148 66.47 13.7172C66.47 11.9995 66.8195 10.4916 67.5185 9.19345C68.2175 7.89526 69.1962 6.89665 70.4544 6.19762C71.7127 5.4986 73.1607 5.14908 74.7984 5.14908C76.3762 5.14908 77.7842 5.48861 79.0225 6.16766C80.2807 6.84672 81.2494 7.81537 81.9284 9.07362C82.6275 10.3119 82.977 11.7399 82.977 13.3577ZM78.633 12.1593C78.6131 11.0808 78.2236 10.222 77.4647 9.58291C76.7057 8.92383 75.777 8.59428 74.6785 8.59428C73.64 8.59428 72.7612 8.91384 72.0422 9.55295C71.3432 10.1721 70.9138 11.0409 70.754 12.1593H78.633Z" fill="#0174BE"/>
<path fill-rule="evenodd" clip-rule="evenodd" d="M63.39 22.2141V5.61718H59.1958V22.2141H63.39Z" fill="#0174BE"/>
<path d="M48.751 5.33257C50.0093 5.33257 51.1277 5.61218 52.1064 6.1714C53.085 6.71065 53.8439 7.51953 54.3832 8.59803C54.9424 9.65655 55.222 10.9348 55.222 12.4327V22.1691H51.0279V13.0019C51.0279 11.6837 50.6983 10.6751 50.0392 9.97611C49.3802 9.25711 48.4814 8.89761 47.343 8.89761C46.1846 8.89761 45.2659 9.25711 44.5868 9.97611C43.9278 10.6751 43.5982 11.6837 43.5982 13.0019V22.1691H39.4041V0H43.5982V7.63936C44.1375 6.92036 44.8565 6.36114 45.7552 5.9617C46.654 5.54228 47.6526 5.33257 48.751 5.33257Z" fill="#0174BE"/>
<path d="M20.3038 13.7172C20.3038 11.9995 20.6533 10.5016 21.3524 9.22341C22.0514 7.92522 23.0201 6.92661 24.2583 6.22758C25.4966 5.50858 26.9146 5.14908 28.5124 5.14908C30.5695 5.14908 32.2672 5.66836 33.6053 6.70691C34.9634 7.72549 35.8722 9.16349 36.3315 11.0209H31.8078C31.5681 10.3019 31.1587 9.74269 30.5795 9.34324C30.0203 8.92383 29.3213 8.71412 28.4824 8.71412C27.2841 8.71412 26.3354 9.15351 25.6364 10.0323C24.9374 10.8911 24.5879 12.1194 24.5879 13.7172C24.5879 15.295 24.9374 16.5232 25.6364 17.402C26.3354 18.2608 27.2841 18.6902 28.4824 18.6902C30.1801 18.6902 31.2885 17.9313 31.8078 16.4134H36.3315C35.8722 18.2109 34.9634 19.6389 33.6053 20.6974C32.2472 21.756 30.5496 22.2852 28.5124 22.2852C26.9146 22.2852 25.4966 21.9357 24.2583 21.2367C23.0201 20.5177 22.0514 19.5191 21.3524 18.2409C20.6533 16.9427 20.3038 15.4348 20.3038 13.7172Z" fill="#0174BE"/>
<path d="M0 13.6572C0 11.9796 0.329541 10.4916 0.988623 9.19345C1.66768 7.89526 2.57641 6.89665 3.71483 6.19762C4.87321 5.4986 6.16142 5.14908 7.57945 5.14908C8.81772 5.14908 9.89622 5.39873 10.8149 5.89804C11.7536 6.39734 12.5026 7.02647 13.0618 7.78541V5.41871H17.2859V22.0156H13.0618V19.589C12.5226 20.3679 11.7736 21.017 10.8149 21.5363C9.87625 22.0356 8.78776 22.2852 7.54949 22.2852C6.15143 22.2852 4.87321 21.9257 3.71483 21.2067C2.57641 20.4877 1.66768 19.4791 0.988623 18.1809C0.329541 16.8628 0 15.3549 0 13.6572ZM13.0618 13.7172C13.0618 12.6986 12.8621 11.8298 12.4626 11.1108C12.0632 10.3718 11.524 9.81259 10.8449 9.43312C10.1658 9.03367 9.43686 8.83395 8.65794 8.83395C7.87903 8.83395 7.16003 9.02369 6.50095 9.40316C5.84187 9.78263 5.30262 10.3419 4.8832 11.0808C4.48376 11.7998 4.28403 12.6586 4.28403 13.6572C4.28403 14.6558 4.48376 15.5346 4.8832 16.2936C5.30262 17.0325 5.84187 17.6017 6.50095 18.0012C7.18 18.4006 7.899 18.6004 8.65794 18.6004C9.43686 18.6004 10.1658 18.4106 10.8449 18.0311C11.524 17.6317 12.0632 17.0725 12.4626 16.3535C12.8621 15.6145 13.0618 14.7357 13.0618 13.7172Z" fill="#0174BE"/>
</svg>
